<?xml version="1.0" encoding="utf-8"?>
<!-- Generator: Adobe Illustrator 21.0.0, SVG Export Plug-In . SVG Version: 6.00 Build 0)  -->
<svg version="1.1" id="Layer_1" xmlns="http://www.w3.org/2000/svg" xmlns:xlink="http://www.w3.org/1999/xlink" x="0px" y="0px"
	 viewBox="0 0 512 512" style="enable-background:new 0 0 512 512;" xml:space="preserve">
<style type="text/css">
	.st0{fill:#D9D9D9;}
</style>
<g>
	<polygon class="st0" points="115.6,465.9 396.4,465.9 411.8,138.2 100.2,138.2 	"/>
	<path d="M481.3,92.2h-81.9V41c0-22.6-18.4-41-41-41H153.6c-22.6,0-41,18.4-41,41v51.2H30.7c-11.3,0-20.5,9.2-20.5,20.5v20.5
		c0,2.8,2.3,5.1,5.1,5.1H54L69.8,473c1,21.8,19.1,39,40.9,39h290.6c21.9,0,39.9-17.2,40.9-39L458,138.2h38.7c2.8,0,5.1-2.3,5.1-5.1
		v-20.5C501.8,101.3,492.6,92.2,481.3,92.2z M158.7,46.1h194.6v46.1H158.7V46.1z M396.4,465.9H115.6l-15.5-327.7h311.7L396.4,465.9z
		"/>
</g>
</svg>
