<?xml version="1.0" encoding="UTF-8"?> <svg xmlns="http://www.w3.org/2000/svg" width="76" height="60" viewBox="0 0 76 60" fill="none"> <path fill-rule="evenodd" clip-rule="evenodd" d="M38.4526 15.8426C39.4704 14.2694 39.9795 12.5213 39.9795 10.5985C39.9795 8.6902 39.4704 6.94945 38.4526 5.37621C37.4502 3.78841 36.1032 2.52836 34.412 1.59607C32.7206 0.649218 30.8413 0.175781 28.774 0.175781H4.97705V30.0052C3.47038 30.8486 2.26552 31.9797 1.36251 33.3989C0.454164 34.812 0 36.3779 0 38.0968C0 39.4516 0.3054 40.7481 0.916178 41.9862C1.52696 43.2099 2.37265 44.2514 3.45325 45.1108C4.97237 46.2325 6.54631 46.9245 8.17505 47.1866C9.81945 47.4342 11.3699 47.5436 12.8264 47.5145H13.3432C16.0526 47.5727 18.7462 47.5799 21.4243 47.5362H22.1995C23.5306 47.5216 24.8385 47.4999 26.1225 47.4708C26.561 47.4708 26.9997 47.4634 27.4381 47.4488C28.926 47.3614 30.171 47.5071 31.1732 47.8858C32.0973 48.3229 32.669 49.0366 32.8882 50.0273C33.0918 51.0614 32.8333 51.9573 32.113 52.7149C31.4081 53.3995 30.6015 53.7419 29.6933 53.7419H1.1276V59.9911H29.6933C31.1028 59.9911 32.4495 59.7215 33.7338 59.1826C35.0181 58.6437 36.1456 57.8789 37.1167 56.8882C38.1972 55.7667 38.9411 54.4773 39.3482 53.0208C39.7243 51.6514 39.7713 50.2603 39.4892 48.8473C38.8158 45.8464 37.0304 43.6542 34.1332 42.2703C32.9742 41.7605 31.8075 41.4472 30.6331 41.3307C29.4741 41.2142 28.37 41.1705 27.3206 41.1996C26.8665 41.2142 26.4201 41.2214 25.9816 41.2214C24.7132 41.2505 23.4366 41.2725 22.1526 41.287H21.3773C18.7462 41.3162 16.1152 41.3088 13.4841 41.2651H13.4607H12.8969C11.8163 41.2651 10.8374 41.2214 9.96041 41.134C9.0834 41.032 8.36298 40.7699 7.79918 40.3475C7.07879 39.7064 6.71858 38.9564 6.71858 38.0968C6.71858 37.2374 7.04747 36.5018 7.70523 35.8898C8.36298 35.2781 9.15387 34.9722 10.0779 34.9722H36.5419L51.1862 59.9911H57.6985L76 28.7241V28.7239L57.9572 0.175781H50.9275L32.8854 28.723H11.6956V21.0212H28.774C30.8413 21.0212 32.7206 20.5551 34.412 19.6227C36.1032 18.676 37.4502 17.4158 38.4526 15.8426ZM68.276 28.7239L65.3217 24.4962H43.112L40.6078 28.7239H40.6094L54.4425 52.3653L68.2753 28.7239H68.276ZM11.6956 14.7719V6.42504H28.774C30.0111 6.42504 31.0682 6.83291 31.9454 7.64867C32.8223 8.46442 33.2607 9.44769 33.2607 10.5985C33.2607 11.7493 32.8223 12.7326 31.9454 13.5483C31.0682 14.3641 30.0111 14.7719 28.774 14.7719H11.6956ZM47.108 18.2504L54.4422 6.67946L61.7767 18.2504H47.108Z" fill="white"></path> </svg> 